<?xml version="1.0" standalone="no"?>
<!DOCTYPE svg PUBLIC "-//W3C//DTD SVG 20010904//EN"
 "http://www.w3.org/TR/2001/REC-SVG-20010904/DTD/svg10.dtd">
<svg version="1.0" xmlns="http://www.w3.org/2000/svg"
 width="537.000000pt" height="464.000000pt" viewBox="0 0 537.000000 464.000000"
 preserveAspectRatio="xMidYMid meet">

<g transform="translate(0.000000,464.000000) scale(0.100000,-0.100000)"
fill="#ffffff" stroke="none">
<path d="M2515 4600 c-275 -25 -472 -79 -710 -195 -193 -93 -283 -157 -452
-319 -104 -99 -217 -235 -288 -345 -92 -143 -204 -411 -237 -566 -5 -27 -14
-68 -19 -90 -33 -150 -28 -555 10 -732 25 -114 60 -231 72 -238 5 -3 59 10
121 29 224 69 421 115 578 135 47 6 119 16 160 21 127 17 366 30 551 30 l177
0 5 32 c8 48 -12 258 -29 320 -5 17 -8 16 -45 -3 -22 -11 -68 -22 -102 -25
-80 -8 -158 20 -224 81 -40 36 -46 46 -37 62 15 25 88 61 143 69 56 9 155 -10
192 -37 44 -31 44 -14 -2 99 -15 37 -23 38 -70 15 -45 -22 -129 -28 -193 -14
-58 13 -134 64 -156 105 -14 27 -13 29 12 51 32 27 120 55 175 55 21 0 64 -11
96 -24 31 -13 57 -21 57 -19 0 10 -71 123 -77 123 -4 0 -14 -6 -22 -14 -27
-22 -111 -46 -167 -46 -76 0 -151 31 -212 87 -25 23 -9 55 43 87 47 29 56 31
153 31 56 0 102 2 102 5 0 3 -19 28 -43 55 l-43 49 -47 -36 c-77 -59 -199 -73
-277 -33 -51 26 -54 40 -20 78 51 58 113 89 182 91 l60 1 -54 48 c-52 48 -54
48 -105 42 -54 -7 -116 5 -168 32 -88 46 -169 146 -163 201 3 26 5 27 77 30
131 5 230 -52 289 -166 16 -32 41 -62 60 -74 l33 -21 -8 39 c-20 100 8 226 53
232 23 3 65 -34 102 -93 35 -56 41 -151 14 -221 l-21 -52 39 -31 c21 -17 40
-31 42 -31 2 0 2 28 0 62 -4 70 14 122 60 176 41 49 63 40 104 -38 25 -49 26
-194 2 -233 -52 -80 -51 -69 -17 -110 17 -20 34 -37 38 -37 5 0 11 18 14 40
10 73 98 180 149 180 26 0 43 -59 42 -151 0 -90 -9 -112 -71 -180 -24 -26 -24
-27 -7 -63 19 -39 34 -47 34 -17 0 41 56 121 107 152 l36 22 18 -22 c23 -28
43 -123 35 -166 -6 -29 -3 -34 16 -40 33 -10 68 -45 85 -85 l14 -35 16 29 c14
27 13 30 -11 55 -36 37 -56 92 -56 153 0 60 17 101 43 106 42 8 127 -97 127
-157 0 -12 7 -9 27 11 l27 27 -27 49 c-19 35 -27 64 -27 98 1 81 40 164 78
164 32 0 72 -77 81 -157 l6 -51 24 19 c22 18 24 23 13 53 -18 50 -15 141 7
184 21 42 65 92 80 92 5 0 21 -15 35 -33 22 -29 26 -44 26 -105 0 -58 3 -72
15 -72 9 0 21 12 28 28 25 56 81 122 121 141 46 22 143 36 175 26 59 -18 -10
-146 -104 -194 -39 -20 -66 -26 -123 -26 -68 -1 -75 -4 -104 -32 l-30 -31 43
-7 c54 -9 106 -38 138 -77 22 -28 23 -30 6 -48 -45 -50 -158 -49 -239 1 l-49
30 -24 -23 c-52 -48 -48 -53 35 -53 66 0 84 -4 125 -28 58 -34 60 -55 9 -96
-68 -53 -185 -62 -260 -20 -18 11 -35 19 -36 19 -2 0 -16 -18 -30 -41 -28 -42
-28 -62 -1 -39 26 22 155 17 200 -6 64 -33 67 -49 18 -94 -73 -68 -189 -85
-275 -39 -17 9 -23 8 -32 -7 -16 -27 -37 -87 -32 -91 2 -3 19 3 38 13 49 26
160 24 216 -5 23 -12 42 -29 42 -38 0 -25 -72 -87 -117 -101 -55 -16 -126 -15
-169 3 -20 8 -40 13 -44 10 -17 -11 -39 -280 -23 -296 5 -5 43 -13 83 -19 151
-20 217 -31 300 -50 47 -11 117 -27 155 -36 66 -15 124 -30 290 -76 92 -25
377 -131 485 -179 47 -20 109 -47 138 -58 l52 -21 40 83 c74 157 139 388 160
572 39 343 -16 692 -156 993 -19 40 -34 75 -34 77 0 12 -106 183 -153 247
-328 443 -800 706 -1352 753 -146 12 -172 12 -260 5z"/>
<path d="M2584 2972 l-32 -37 29 -80 c15 -44 33 -102 39 -130 22 -94 22 -94
41 -35 41 123 41 117 3 152 -38 35 -57 89 -48 137 4 17 5 31 3 30 -2 0 -18
-17 -35 -37z"/>
<path d="M442 1963 c-18 -9 -32 -21 -32 -28 0 -7 14 -40 30 -73 17 -34 30 -68
30 -76 0 -10 -57 -44 -160 -96 -88 -44 -160 -83 -160 -88 0 -4 9 -21 20 -39
22 -37 1 -43 201 55 70 34 133 62 141 62 14 0 78 -96 78 -117 0 -26 27 -33 64
-18 20 8 36 16 36 18 0 9 -200 406 -207 410 -5 3 -23 -1 -41 -10z"/>
<path d="M4704 1775 c-55 -113 -98 -208 -95 -213 3 -4 56 -31 116 -61 61 -29
150 -73 198 -97 93 -46 107 -51 107 -34 0 6 43 97 95 203 52 106 95 196 95
200 0 8 -54 37 -70 37 -6 0 -45 -72 -87 -160 -58 -121 -81 -160 -95 -160 -22
0 -68 28 -68 42 0 6 34 78 75 161 42 83 74 156 71 163 -4 11 -67 48 -71 42 -1
-2 -37 -74 -79 -160 -43 -87 -82 -161 -87 -164 -6 -3 -23 0 -40 6 -21 9 -29
19 -29 36 0 13 34 92 75 174 l75 150 -40 20 c-21 11 -41 20 -42 20 -2 0 -49
-92 -104 -205z"/>
<path d="M1360 1896 c0 -3 26 -10 58 -16 31 -7 66 -17 77 -24 11 -7 39 -15 62
-18 23 -3 56 -13 74 -22 18 -9 38 -16 46 -16 13 0 75 -23 148 -55 105 -45 154
-65 161 -65 5 0 78 -34 162 -75 84 -41 155 -75 156 -75 2 0 34 -18 70 -40 36
-22 68 -40 72 -40 25 0 397 -250 573 -385 88 -68 132 -95 152 -95 36 0 166 48
276 103 84 41 113 58 226 131 l49 30 -26 21 c-37 29 -452 235 -536 265 -19 7
-39 17 -44 22 -6 4 -19 8 -31 8 -12 0 -25 4 -31 9 -16 15 -342 120 -501 161
-263 68 -556 123 -753 140 -52 4 -144 15 -204 24 -102 15 -236 22 -236 12z"/>
<path d="M1020 1823 c0 -15 114 -181 173 -252 92 -110 266 -273 367 -343 318
-221 689 -339 1064 -340 131 -1 346 19 346 32 0 3 -16 16 -36 30 -19 14 -56
41 -82 60 -231 175 -598 390 -862 504 -252 110 -564 217 -790 272 -80 19 -153
38 -162 40 -10 3 -18 1 -18 -3z"/>
<path d="M575 1399 c-72 -60 -150 -126 -174 -147 l-43 -37 52 -60 c78 -90 89
-103 165 -198 39 -48 75 -87 82 -87 7 0 24 10 38 23 l26 22 -110 137 c-61 75
-111 143 -111 151 0 20 45 58 61 52 8 -4 55 -56 104 -117 50 -61 100 -122 111
-136 l21 -26 31 25 c17 13 31 29 31 34 1 6 -17 33 -40 60 -23 28 -58 70 -78
94 -20 25 -48 59 -63 77 -32 36 -36 71 -10 90 33 25 50 14 129 -82 43 -53 94
-113 113 -135 l35 -39 33 20 c17 11 32 24 32 29 0 5 -17 30 -37 54 -21 24 -69
84 -108 132 -38 48 -85 103 -102 123 -18 21 -33 40 -33 45 0 20 -36 -4 -155
-104z"/>
<path d="M4473 1403 c-48 -60 -114 -139 -146 -178 l-59 -70 33 -27 c18 -16 36
-28 40 -28 4 0 30 28 57 63 126 158 164 202 177 209 9 5 44 -17 107 -68 51
-41 97 -82 101 -90 6 -11 -14 -43 -71 -112 -44 -53 -86 -98 -93 -100 -8 -1
-42 21 -77 49 l-63 52 -29 -28 c-17 -16 -30 -32 -30 -37 0 -4 48 -46 107 -94
l107 -86 19 24 c50 62 177 217 219 267 26 31 48 61 48 68 0 6 -33 38 -72 71
-40 33 -117 96 -171 141 -53 45 -101 81 -107 81 -5 0 -48 -48 -97 -107z"/>
<path d="M974 1018 c-38 -51 -101 -133 -139 -182 l-69 -89 30 -23 c37 -30 45
-30 72 1 12 14 27 25 32 25 6 0 35 -18 64 -40 53 -38 54 -41 66 -109 10 -61
16 -73 45 -95 19 -14 36 -26 40 -26 3 0 3 20 0 44 -8 50 12 67 41 35 25 -27
38 -24 70 19 15 20 63 81 107 135 43 54 77 105 75 112 -3 11 -346 284 -358
285 -3 0 -37 -42 -76 -92z m199 -112 c108 -84 113 -90 98 -119 -24 -44 -94
-118 -107 -113 -16 6 -187 136 -196 150 -9 14 1 35 46 94 22 28 49 52 58 52
10 0 55 -29 101 -64z"/>
<path d="M4143 1047 c-223 -170 -273 -210 -273 -222 0 -13 273 -355 283 -355
7 1 25 11 40 24 l28 22 -21 26 c-32 41 -25 61 36 106 58 43 68 45 160 27 13
-3 38 8 65 28 l44 32 -45 5 c-54 6 -63 28 -24 59 l26 21 -28 36 c-55 70 -116
149 -155 202 -22 28 -43 52 -47 52 -4 -1 -44 -29 -89 -63z m130 -132 c26 -35
47 -70 47 -77 -1 -7 -18 -25 -38 -41 -20 -15 -63 -48 -94 -72 -31 -25 -65 -45
-75 -45 -17 0 -113 109 -113 129 0 15 202 172 220 171 3 -1 26 -30 53 -65z"/>
<path d="M1453 768 c-10 -21 -41 -89 -131 -288 -47 -104 -47 -107 -13 -124 41
-22 45 -21 64 19 9 19 23 35 31 35 8 0 41 -12 74 -26 57 -24 60 -28 84 -87 19
-50 31 -66 63 -84 22 -12 41 -20 43 -18 2 2 -1 20 -7 41 -13 48 -2 63 33 44
14 -7 31 -10 38 -7 7 3 31 45 52 94 22 48 55 119 73 157 37 79 40 72 -52 115
-33 16 -100 48 -150 71 -114 54 -175 80 -184 80 -4 0 -12 -10 -18 -22z m183
-148 c60 -27 113 -56 118 -64 7 -9 1 -34 -18 -77 -37 -84 -49 -96 -78 -81 -13
6 -67 31 -120 56 -54 24 -98 49 -98 54 0 18 69 162 78 162 4 0 57 -22 118 -50z"/>
<path d="M3780 780 c-20 -12 -207 -100 -290 -135 -101 -44 -100 -37 -41 -160
28 -58 51 -108 51 -110 0 -8 90 -195 94 -195 2 0 55 24 117 54 63 29 154 72
204 95 49 23 91 44 93 46 6 6 -27 75 -37 75 -8 0 -118 -49 -250 -114 -30 -14
-63 -26 -73 -26 -20 0 -38 29 -38 62 0 25 0 25 190 111 145 65 138 59 117 101
-18 38 -26 42 -55 26 -87 -49 -281 -130 -299 -125 -27 6 -42 61 -22 80 8 7 78
42 157 78 79 36 146 67 148 70 3 3 0 22 -7 41 -13 36 -30 43 -59 26z"/>
<path d="M1931 524 c-6 -33 -20 -102 -31 -154 -34 -158 -44 -230 -34 -240 5
-5 22 -10 39 -12 26 -3 31 1 41 32 9 26 18 36 36 38 26 3 222 -33 240 -44 6
-4 7 -24 3 -50 -6 -41 -5 -44 22 -50 15 -3 33 -7 40 -9 18 -6 25 10 44 109 9
50 28 147 43 215 14 69 24 126 22 128 -2 2 -46 12 -97 23 -52 11 -137 29 -189
40 -52 12 -111 24 -131 27 l-36 5 -12 -58z m249 -78 c47 -10 91 -23 98 -30 10
-10 9 -27 -4 -90 -10 -44 -24 -80 -31 -83 -17 -7 -217 33 -245 48 -14 7 -18
17 -15 32 3 12 11 51 18 85 l12 64 41 -5 c23 -2 79 -12 126 -21z"/>
<path d="M3259 570 c-14 -8 -15 -33 -11 -194 l5 -185 -29 -11 c-15 -6 -50 -12
-78 -13 l-49 -2 -23 55 c-13 30 -42 107 -65 170 -24 63 -44 117 -46 119 -2 3
-93 -19 -93 -23 0 -1 27 -74 61 -162 33 -87 65 -174 71 -193 17 -59 35 -79 66
-74 87 15 275 54 283 59 8 4 4 154 -6 259 -2 22 -4 77 -4 123 l-1 82 -32 0
c-18 0 -40 -5 -49 -10z"/>
</g>
</svg>
