<?xml version="1.0" standalone="no"?>
<!DOCTYPE svg PUBLIC "-//W3C//DTD SVG 20010904//EN"
 "http://www.w3.org/TR/2001/REC-SVG-20010904/DTD/svg10.dtd">
<svg version="1.0" xmlns="http://www.w3.org/2000/svg"
 width="1000.000000pt" height="1000.000000pt" viewBox="1 1 464.000000 464.000000"
 preserveAspectRatio="xMidYMid meet">

<g transform="translate(0.000000,464.000000) scale(0.100000,-0.100000)"
fill="#ffffff" stroke="none">
<path d="M2525 3910 c-135 -16 -320 -72 -450 -137 -113 -57 -203 -121 -303
-217 -307 -294 -450 -668 -413 -1089 9 -111 51 -320 67 -336 2 -3 62 12 132
32 307 87 435 107 765 114 191 4 250 9 254 19 5 15 -13 212 -23 237 -5 15 -9
15 -34 2 -37 -19 -133 -19 -173 0 -45 21 -87 59 -87 79 0 11 18 25 47 38 56
25 154 21 198 -8 l28 -18 -8 24 c-15 46 -35 90 -43 90 -4 -1 -18 -7 -32 -15
-33 -19 -122 -19 -168 1 -42 17 -92 61 -92 81 0 19 39 41 98 53 43 10 61 9 99
-4 25 -9 48 -14 50 -12 6 6 -40 76 -50 76 -4 0 -20 -8 -34 -17 -20 -13 -47
-18 -98 -18 -59 0 -76 5 -113 28 -57 37 -63 54 -27 83 40 32 111 47 163 36
l42 -10 -20 27 c-32 46 -49 57 -68 43 -72 -51 -127 -63 -193 -41 -49 17 -55
25 -39 54 19 36 91 75 137 75 l38 0 -33 32 c-28 29 -38 32 -94 33 -43 1 -76 8
-104 23 -75 38 -146 142 -112 163 24 15 102 9 148 -12 58 -26 77 -44 105 -100
13 -25 34 -50 48 -56 24 -11 24 -11 16 28 -11 48 3 115 29 141 18 19 19 18 55
-21 57 -63 64 -112 32 -216 -5 -15 2 -26 25 -44 l32 -23 -6 30 c-15 63 42 182
80 168 8 -3 24 -27 36 -52 26 -60 21 -141 -11 -184 l-22 -30 23 -30 c12 -16
23 -30 24 -30 2 0 8 19 15 42 7 27 27 59 55 87 42 41 46 43 61 28 11 -11 18
-39 21 -80 4 -67 -9 -109 -50 -154 -18 -19 -18 -24 -5 -49 l14 -27 12 34 c14
40 36 69 73 93 26 17 27 17 44 -10 11 -16 18 -46 18 -79 1 -47 4 -54 27 -64
15 -6 32 -25 39 -41 14 -33 25 -38 34 -14 4 9 -4 28 -19 45 -13 16 -27 46 -31
66 -9 48 6 107 29 111 24 5 76 -50 83 -87 7 -34 15 -38 34 -16 10 12 9 22 -6
52 -10 21 -18 57 -18 79 1 46 32 109 54 109 19 0 49 -54 58 -104 6 -39 8 -41
26 -28 15 11 17 17 7 35 -30 56 8 183 56 190 29 4 53 -42 53 -105 1 -53 3 -52
53 27 30 47 99 81 157 78 55 -4 61 -21 26 -77 -34 -53 -89 -81 -159 -81 -44 0
-58 -4 -77 -25 l-23 -25 22 0 c24 0 76 -24 104 -48 66 -58 -62 -98 -152 -47
-46 27 -60 24 -81 -15 -8 -16 -4 -17 35 -13 52 6 135 -28 135 -55 0 -10 -17
-28 -37 -42 -29 -20 -49 -25 -94 -25 -31 1 -69 7 -84 15 -25 13 -28 13 -46
-10 -26 -35 -24 -40 15 -28 42 13 118 2 147 -21 19 -15 20 -20 9 -40 -19 -36
-94 -65 -149 -57 -25 3 -56 8 -67 12 -18 5 -24 0 -33 -27 -13 -38 -10 -44 17
-30 30 16 118 13 152 -4 37 -19 38 -45 3 -72 -64 -47 -117 -52 -195 -19 -14 6
-17 -2 -23 -56 -4 -35 -5 -85 -3 -113 l3 -50 105 -16 c289 -44 572 -125 859
-249 52 -22 98 -40 103 -40 11 0 62 105 86 180 58 175 66 234 66 445 0 215
-10 283 -70 450 -135 380 -449 689 -820 809 -186 60 -419 87 -589 66z"/>
<path d="M2646 2741 c-20 -22 -20 -22 7 -105 15 -45 27 -90 27 -99 0 -36 18
-14 33 40 l17 57 -25 21 c-17 13 -28 35 -33 64 l-7 43 -19 -21z"/>
<path d="M1105 2018 c-11 -6 -21 -12 -23 -13 -2 -2 9 -28 24 -59 16 -30 26
-57 23 -60 -2 -2 -55 -29 -117 -60 -102 -51 -112 -59 -106 -79 3 -12 10 -26
14 -30 4 -5 57 17 119 47 61 31 115 56 120 56 5 0 22 -23 38 -52 32 -58 41
-64 68 -44 18 13 15 20 -53 160 -39 80 -75 146 -79 146 -4 0 -17 -6 -28 -12z"/>
<path d="M4172 1884 c-40 -80 -72 -147 -72 -149 0 -4 288 -145 296 -145 3 0
37 66 76 146 69 140 71 147 53 160 -10 8 -24 14 -30 14 -6 0 -35 -50 -64 -111
-29 -60 -59 -113 -67 -116 -9 -3 -24 3 -34 13 -18 18 -16 22 37 133 52 108 55
115 37 128 -10 7 -23 13 -29 13 -6 0 -36 -52 -68 -115 -31 -63 -63 -115 -70
-115 -7 0 -21 6 -31 13 -17 12 -15 21 39 132 53 111 56 120 39 132 -10 7 -23
13 -29 13 -6 0 -44 -65 -83 -146z"/>
<path d="M1780 1970 c8 -5 24 -10 35 -10 11 0 33 -7 49 -15 15 -8 36 -15 46
-15 17 0 165 -51 205 -70 11 -5 44 -19 73 -30 53 -20 295 -138 367 -179 81
-46 302 -196 384 -260 120 -93 114 -91 180 -71 98 31 251 108 325 165 19 15
19 15 1 29 -18 13 -248 129 -345 173 -52 24 -208 80 -327 117 -234 73 -498
125 -788 155 -174 19 -221 21 -205 11z"/>
<path d="M1537 1893 c130 -206 337 -399 536 -500 70 -35 225 -90 327 -116 73
-18 114 -21 292 -22 139 0 211 4 218 11 20 20 -307 241 -520 351 -224 116
-508 222 -743 279 -129 31 -132 31 -110 -3z"/>
<path d="M1219 1627 c-48 -40 -105 -88 -129 -107 l-42 -35 107 -128 c103 -123
108 -128 126 -111 10 9 19 20 19 24 0 4 -34 49 -75 99 -77 95 -84 108 -63 129
23 23 38 12 114 -80 43 -51 82 -94 89 -96 6 -1 19 6 28 16 16 18 13 23 -63
118 -44 54 -80 101 -80 105 0 14 38 39 51 34 8 -4 48 -48 89 -100 l74 -93 29
14 c17 9 25 19 20 27 -6 10 -183 228 -202 249 -3 4 -45 -25 -92 -65z"/>
<path d="M3965 1570 l-107 -130 24 -20 c12 -11 25 -19 28 -20 3 0 41 45 85
100 44 55 83 100 88 100 14 0 147 -113 147 -125 0 -14 -110 -145 -122 -145 -6
0 -28 16 -51 35 -22 19 -44 35 -47 35 -13 0 -42 -39 -36 -48 15 -24 148 -124
155 -116 11 13 183 227 193 240 6 8 -29 43 -104 105 -62 51 -120 99 -129 106
-14 12 -29 -2 -124 -117z"/>
<path d="M1446 1284 c-53 -70 -96 -132 -96 -138 0 -6 9 -17 21 -24 18 -12 24
-11 40 7 24 26 24 26 62 -1 46 -30 57 -47 57 -85 0 -22 9 -43 30 -65 l29 -33
1 38 c0 36 20 52 35 27 3 -5 10 -10 15 -10 9 0 157 181 162 198 3 8 -87 82
-223 185 l-37 28 -96 -127z m187 -24 c36 -27 69 -54 72 -60 7 -11 -35 -79 -61
-101 -11 -9 -30 0 -89 46 -41 31 -75 62 -75 68 0 13 69 97 79 97 4 0 38 -22
74 -50z"/>
<path d="M3706 1315 c-65 -51 -123 -98 -128 -103 -9 -9 175 -255 195 -259 7
-2 21 4 31 12 18 14 18 15 1 42 l-18 27 39 33 c34 30 44 34 90 32 37 -2 61 3
81 16 l28 19 -29 6 c-34 6 -43 22 -21 40 8 7 15 16 15 21 0 10 -149 203 -159
206 -3 1 -59 -40 -125 -92z m154 -45 c17 -22 30 -47 28 -57 -4 -20 -117 -111
-139 -112 -19 -1 -82 74 -77 94 3 16 127 114 145 114 6 1 26 -17 43 -39z"/>
<path d="M1815 1118 c-15 -35 -45 -100 -66 -146 -22 -45 -39 -87 -39 -92 0
-15 53 -25 58 -11 2 6 10 18 18 26 12 12 21 11 63 -6 41 -18 50 -26 60 -59 10
-35 51 -80 72 -80 4 0 5 17 2 37 -6 33 -4 36 13 29 38 -16 45 -9 99 107 l54
119 -102 47 c-141 66 -195 91 -200 91 -2 0 -17 -28 -32 -62z m157 -65 c57 -26
78 -41 78 -55 0 -21 -35 -93 -49 -102 -5 -3 -45 11 -90 31 -58 26 -81 42 -81
54 0 25 42 109 54 109 6 0 45 -16 88 -37z"/>
<path d="M3485 1159 c-22 -10 -88 -41 -147 -68 l-107 -50 69 -148 c43 -91 74
-147 82 -145 36 8 287 128 288 138 0 5 -6 19 -14 29 -14 19 -18 18 -130 -34
-69 -32 -120 -50 -125 -45 -5 5 -12 19 -16 31 -6 21 4 27 114 79 l120 57 -14
28 -15 28 -105 -50 c-118 -55 -139 -59 -156 -28 -15 29 -6 36 124 94 59 27
107 50 107 51 0 10 -24 54 -29 53 -3 0 -24 -9 -46 -20z"/>
<path d="M2185 1018 c-2 -7 -17 -78 -34 -158 -27 -134 -28 -146 -13 -158 22
-17 46 -11 50 13 7 36 19 38 111 20 l91 -19 0 -38 c0 -36 2 -38 30 -38 33 0
30 -6 56 125 9 44 20 102 26 129 12 61 7 73 -34 79 -39 5 -235 46 -261 53 -9
3 -19 -1 -22 -8z m149 -84 c45 -9 86 -20 92 -25 8 -7 8 -24 -2 -65 -7 -31 -15
-58 -18 -61 -2 -3 -44 4 -93 14 l-88 20 1 51 c2 54 9 82 20 82 4 0 43 -7 88
-16z"/>
<path d="M3136 1023 c-17 -5 -18 -15 -15 -141 l4 -137 -49 -12 c-27 -7 -53
-10 -57 -8 -4 3 -27 59 -51 125 -41 114 -44 120 -71 120 -15 0 -30 -6 -33 -13
-2 -7 19 -78 49 -158 l53 -144 35 1 c34 0 190 31 197 39 3 2 1 79 -3 170 -8
177 -6 171 -59 158z"/>
</g>
</svg>
